<?xml version="1.0" standalone="no"?>
<!DOCTYPE svg PUBLIC "-//W3C//DTD SVG 20010904//EN"
 "http://www.w3.org/TR/2001/REC-SVG-20010904/DTD/svg10.dtd">
<svg version="1.0" xmlns="http://www.w3.org/2000/svg"
 width="64.000000pt" height="64.000000pt" viewBox="0 0 64.000000 64.000000"
 preserveAspectRatio="xMidYMid meet">

<g transform="translate(0.000000,64.000000) scale(0.100000,-0.100000)"
fill="#000000" stroke="none">
<path d="M130 581 c-5 -11 -10 -78 -10 -150 l0 -131 55 0 c50 0 56 -2 70 -30
15 -28 19 -30 75 -30 56 0 60 2 75 30 12 23 22 30 45 30 17 0 30 -4 30 -10 0
-5 -11 -10 -24 -10 -17 0 -27 -9 -36 -30 -12 -30 -13 -30 -90 -30 -77 0 -78 0
-90 30 -12 29 -14 30 -81 30 l-69 0 0 -104 c0 -82 3 -108 16 -120 23 -24 425
-24 448 0 13 12 16 38 16 120 0 97 -1 104 -20 104 -19 0 -20 7 -20 100 l0 99
-57 3 -58 3 -3 58 -3 57 -129 0 c-118 0 -130 -2 -140 -19z m235 -113 c32 -15
33 -32 0 -24 -25 6 -25 6 -25 -57 0 -67 -10 -87 -45 -87 -28 0 -45 19 -45 50
0 34 17 50 52 50 26 0 28 3 28 40 0 45 -1 44 35 28z m43 -340 c-3 -32 -4 -33
-57 -36 -30 -2 -59 2 -64 7 -8 8 6 11 46 11 44 0 57 3 57 15 0 12 -14 15 -70
15 -63 0 -70 -2 -70 -20 0 -11 -4 -20 -10 -20 -5 0 -10 14 -10 30 l0 30 91 0
90 0 -3 -32z"/>
<path d="M274 366 c-9 -24 4 -48 23 -44 24 4 24 52 0 56 -9 2 -20 -4 -23 -12z"/>
<path d="M412 543 c3 -37 4 -38 48 -41 l45 -3 -40 40 c-21 23 -43 41 -48 41
-4 0 -7 -17 -5 -37z"/>
</g>
</svg>
